<svg width="92" height="92" viewBox="0 0 92 92" fill="none" xmlns="http://www.w3.org/2000/svg">
<g opacity="0.51">
<path d="M49.0986 57.7439H43.8388C41.9261 57.7439 40.3768 56.1946 40.3768 54.2819C40.3768 52.3692 41.9261 50.82 43.8388 50.82H53.0961C54.3585 50.82 55.3913 49.7871 55.3913 48.5247C55.3913 47.2624 54.3585 46.2295 53.0961 46.2295H48.7543V43.0353C48.7543 41.773 47.7215 40.7401 46.4591 40.7401C45.1968 40.7401 44.1639 41.773 44.1639 43.0353V46.2295H43.8388C39.4013 46.2295 35.7864 49.8445 35.7864 54.2819C35.7864 58.7193 39.4013 62.3343 43.8388 62.3343H49.0986C51.0113 62.3343 52.5606 63.8836 52.5606 65.7963C52.5606 67.7089 51.0113 69.2582 49.0986 69.2582H39.6691C38.4067 69.2582 37.3739 70.2911 37.3739 71.5534C37.3739 72.8158 38.4067 73.8487 39.6691 73.8487H44.183V77.1193C44.183 78.3817 45.2159 79.4146 46.4783 79.4146C47.7406 79.4146 48.7735 78.3817 48.7735 77.1193V73.8487H49.156C49.1751 73.8487 49.1943 73.8487 49.2134 73.8487C53.6125 73.7913 57.151 70.1954 57.151 65.7963C57.151 61.3588 53.536 57.7439 49.0986 57.7439Z" fill="white" fill-opacity="0.48"/>
<path d="M80.9637 52.5414C78.5537 46.9946 75.2257 41.62 71.0178 36.5896C65.93 30.469 60.8614 26.3759 58.2793 24.4823L68.034 6.38836C68.5122 5.4894 68.3591 4.38004 67.6132 3.67235C65.0885 1.20499 62.4107 0 59.4269 0C56.6918 0 54.1862 1.03285 52.0057 1.95094C50.2843 2.65863 48.6585 3.34719 47.3388 3.34719C46.9371 3.34719 46.5928 3.28981 46.2485 3.15593C41.6964 1.49189 38.1962 0.459044 34.8107 0.459044C30.5263 0.459044 26.8731 2.18046 23.2964 5.85281C22.5504 6.61788 22.4357 7.82287 23.0286 8.72183L33.5483 24.6162C30.9471 26.548 25.9741 30.6029 20.982 36.5896C16.7932 41.62 13.446 46.9946 11.0361 52.5414C8.01403 59.5227 6.48389 66.81 6.48389 74.1929C6.48389 84.005 14.4789 92 24.291 92H67.7088C77.5209 92 85.5159 84.005 85.5159 74.1929C85.5159 66.81 83.9858 59.5227 80.9637 52.5414ZM27.9251 7.76549C30.1438 5.85281 32.2668 5.01123 34.8107 5.01123C37.5267 5.01123 40.587 5.92931 44.661 7.44033C45.5026 7.74636 46.4016 7.89938 47.3196 7.89938C49.5575 7.89938 51.6997 7.01954 53.7463 6.15884C55.7163 5.33638 57.5907 4.55218 59.4078 4.55218C60.2876 4.55218 61.5309 4.7052 63.0993 5.81455L53.9184 22.8757H37.9284L27.9251 7.76549ZM67.7088 87.4096H24.291C17.0036 87.4096 11.0743 81.4802 11.0743 74.1929C11.0743 61.9326 15.5691 50.3035 24.4057 39.6308C29.9907 32.879 35.6714 28.6902 37.3928 27.4661H54.5687C56.3092 28.6711 61.9708 32.879 67.5558 39.6308C76.4115 50.3035 80.8872 61.9135 80.8872 74.1929C80.9255 81.4802 74.9962 87.4096 67.7088 87.4096Z" fill="white" fill-opacity="0.48"/>
</g>
</svg>
